<svg xmlns="http://www.w3.org/2000/svg" xmlns:xlink="http://www.w3.org/1999/xlink" width="945" height="956" viewBox="0 0 945 956">
  <defs>
    <linearGradient id="linear-gradient" x1="0.5" x2="0.5" y2="1" gradientUnits="objectBoundingBox">
      <stop offset="0" stop-color="#fff"/>
      <stop offset="1" stop-color="#8600ff"/>
    </linearGradient>
    <clipPath id="clip-path">
      <rect id="Rectangle_6" data-name="Rectangle 6" width="321" height="269" transform="translate(1596.459 807.8)" stroke="#707070" stroke-width="1" fill="url(#linear-gradient)"/>
    </clipPath>
    <clipPath id="clip-path-2">
      <rect id="Rectangle_7" data-name="Rectangle 7" width="338" height="344" transform="translate(974 268)" fill="#fff"/>
    </clipPath>
  </defs>
  <g id="TOP_MAIN_TITLE" data-name="TOP MAIN TITLE" transform="translate(-1008 -124)">
    <text id="MAIN_HEADER_TITLE" data-name="MAIN HEADER TITLE" transform="translate(1773 478)" fill="#fff" font-size="70" font-family="Oswald-Bold, Oswald" font-weight="700"><tspan x="-556.57" y="0">MAIN HEADER TITLE</tspan></text>
    <text id="Lorem_ipsum_dolor_sit_amet_consetetur_sadipscing_elitr_sed_diam_nonumy_eirmod_more_random_text_to_add_a_3rd_line_of_text" data-name="Lorem ipsum dolor sit amet, consetetur sadipscing elitr, sed diam nonumy eirmod more random text to add a 3rd line of text" transform="translate(1112 498)" fill="#fff" font-size="35" font-family="Helvetica"><tspan x="-604.98" y="27">Lorem ipsum dolor sit amet, consetetur </tspan><tspan x="-641.997" y="69">sadipscing elitr, sed diam nonumy eirmod </tspan><tspan x="-640.066" y="111">more random text to add a 3rd line of text</tspan></text>
    <g id="SIGN_UP_BUTTON" data-name="SIGN UP BUTTON" transform="translate(1502 696)">
      <rect id="Rectangle_3" data-name="Rectangle 3" width="271" height="75" rx="10" fill="#fff"/>
      <text id="SIGN_UP" data-name="SIGN UP" transform="translate(68 54)" fill="#8251d4" font-size="35" font-family="Oswald-Bold, Oswald" font-weight="700"><tspan x="0" y="0">SIGN UP</tspan></text>
    </g>
    <g id="EXPLORE" transform="translate(1191 696)">
      <rect id="Rectangle_3-2" data-name="Rectangle 3" width="271" height="75" rx="10" fill="#fff"/>
      <text id="EXPLORE-2" data-name="EXPLORE" transform="translate(73 54)" fill="#8251d4" font-size="35" font-family="Oswald-Bold, Oswald" font-weight="700"><tspan x="0" y="0">EXPLORE</tspan></text>
    </g>
    <g id="Group_1" data-name="Group 1">
      <rect id="TOP_RIGHT_BOX" data-name="TOP RIGHT BOX" width="945" height="955" transform="translate(1008 125)" fill="#8251d4"/>
      <g id="Mask_Group_1" data-name="Mask Group 1" transform="translate(35.541 3.2)" opacity="0.5" clip-path="url(#clip-path)">
        <g id="Icon_ionic-ios-basketball" data-name="Icon ionic-ios-basketball" transform="translate(1637.751 807.8)">
          <path id="Path_2" data-name="Path 2" d="M150.648,158.348c12.493-10.309,24.724-21.316,36.168-32.848l5.329-5.329c-2.446-2.534-4.892-5.067-7.251-7.426A497.082,497.082,0,0,0,34.805,9.57,180.955,180.955,0,0,0,3.53,87.846a220.49,220.49,0,0,1,80.548,21.4A223.166,223.166,0,0,1,150.648,158.348Z" transform="translate(-6.675 71.197)" fill="url(#linear-gradient)"/>
          <path id="Path_3" data-name="Path 3" d="M75.787,123.666c.437.437.961.961,1.485,1.4a499.567,499.567,0,0,0,46.739-85.091A180.955,180.955,0,0,0,18.3,3.368a200.34,200.34,0,0,0,14.59,56.523A198.643,198.643,0,0,0,75.787,123.666Z" transform="translate(167.168 -3.368)" fill="url(#linear-gradient)"/>
          <path id="Path_4" data-name="Path 4" d="M69.506,118.691a196.316,196.316,0,0,0,56.786,14.59A181.365,181.365,0,0,0,71.952,7.566,518.9,518.9,0,0,1,24.427,92.132,198.568,198.568,0,0,0,69.506,118.691Z" transform="translate(237.136 44.59)" fill="url(#linear-gradient)"/>
          <path id="Path_5" data-name="Path 5" d="M130.837,75.867A200.443,200.443,0,0,0,67.15,32.885a199.728,199.728,0,0,0-63.687-15.2c0,1.31-.087,2.621-.087,3.844a180.457,180.457,0,0,0,39.138,112.61,498.071,498.071,0,0,0,92.08-54.514C133.283,78.4,132.06,77.09,130.837,75.867Z" transform="translate(-3.375 160.186)" fill="url(#linear-gradient)"/>
          <path id="Path_6" data-name="Path 6" d="M165.274,173.452c8.824-9.872,17.21-20.181,25.16-30.664A222.359,222.359,0,0,1,122.117,3.445,181.16,181.16,0,0,0,7.235,61.279a519,519,0,0,1,83.518,48.137A535.943,535.943,0,0,1,165.274,173.452Z" transform="translate(40.727 -2.484)" fill="url(#linear-gradient)"/>
          <path id="Path_7" data-name="Path 7" d="M21.192,48.442a520.32,520.32,0,0,1,83.256,127.9A181.387,181.387,0,0,0,162.282,61.284,221.771,221.771,0,0,1,48.012,15.855C39.626,26.951,30.54,37.958,21.192,48.442Z" transform="translate(200.184 139.3)" fill="url(#linear-gradient)"/>
          <path id="Path_8" data-name="Path 8" d="M16.545,58.6A221.392,221.392,0,0,1,61.1,177.066a180.175,180.175,0,0,0,78.189-31.276A496.512,496.512,0,0,0,58.741,19.814,522.208,522.208,0,0,1,16.545,58.6Z" transform="translate(147.085 184.526)" fill="url(#linear-gradient)"/>
          <path id="Path_9" data-name="Path 9" d="M98.655,24.068A522.411,522.411,0,0,1,7.8,78.932,181.053,181.053,0,0,0,134.56,130.475c1.31,0,2.621,0,3.931-.087a199.727,199.727,0,0,0-15.2-63.687A197,197,0,0,0,98.655,24.068Z" transform="translate(47.153 233.127)" fill="url(#linear-gradient)"/>
        </g>
      </g>
      <g id="Mask_Group_2" data-name="Mask Group 2" transform="translate(35 -144)" opacity="0.5" clip-path="url(#clip-path-2)">
        <path id="Icon_ionic-ios-football" data-name="Icon ionic-ios-football" d="M221.15,3.375C100.85,3.375,3.375,100.85,3.375,221.15c0,120.09,97.685,217.775,217.775,217.775,120.3,0,217.775-97.475,217.775-217.775C438.925,101.06,341.24,3.375,221.15,3.375ZM354.433,87.868a186.99,186.99,0,0,1,23.662,28.792,3.834,3.834,0,0,1,.419,3.664l-15.077,43.241a4.16,4.16,0,0,1-2.2,2.408l-60.2,27.431a4.213,4.213,0,0,1-4.4-.628l-59.26-49.837a4.293,4.293,0,0,1-1.466-3.246V73.628a4.182,4.182,0,0,1,1.885-3.455L278,42.847a4.124,4.124,0,0,1,3.664-.523A190.812,190.812,0,0,1,354.433,87.868ZM277.06,399.453a3.866,3.866,0,0,1-2.722,2.513A188.191,188.191,0,0,1,221.15,409.5a191.468,191.468,0,0,1-53.187-7.538,4.339,4.339,0,0,1-2.722-2.513L148.07,354.433a4.395,4.395,0,0,1,.209-3.455l23.348-44.288a4.231,4.231,0,0,1,3.664-2.2H266.9a4.109,4.109,0,0,1,3.664,2.2l23.348,44.288a4.395,4.395,0,0,1,.209,3.455ZM206.492,73.838V139.9a4.293,4.293,0,0,1-1.466,3.246l-59.365,49.732a4.213,4.213,0,0,1-4.4.628l-60.2-27.431a4.129,4.129,0,0,1-2.2-2.408L63.787,120.534a4.1,4.1,0,0,1,.419-3.664,189.817,189.817,0,0,1,96.533-74.127,4.124,4.124,0,0,1,3.664.523l40.2,27.327A3.466,3.466,0,0,1,206.492,73.838ZM34.471,229.631l37.8-32.666a4.18,4.18,0,0,1,4.5-.628l54.863,24.918a4.193,4.193,0,0,1,2.3,2.827l15.286,59.993a5.005,5.005,0,0,1-.314,3.036l-24.29,45.963a4.076,4.076,0,0,1-3.769,2.2l-48.162-.628a4.371,4.371,0,0,1-3.35-1.675A187.116,187.116,0,0,1,33,233.086,4.579,4.579,0,0,1,34.471,229.631ZM317.578,332.969l-24.186-45.858a3.839,3.839,0,0,1-.314-3.036l15.286-59.993a4.193,4.193,0,0,1,2.3-2.827l54.863-24.918a4.4,4.4,0,0,1,4.5.628l37.8,32.666a4.237,4.237,0,0,1,1.466,3.455,186.572,186.572,0,0,1-36.331,99.883,4.069,4.069,0,0,1-3.35,1.675l-48.266.628A4.593,4.593,0,0,1,317.578,332.969Z" transform="translate(716.475 173.075)" fill="url(#linear-gradient)"/>
      </g>
    </g>
  </g>
</svg>
