<svg xmlns="http://www.w3.org/2000/svg" xmlns:xlink="http://www.w3.org/1999/xlink" width="338" height="344" viewBox="0 0 338 344">
  <defs>
    <clipPath id="clip-path">
      <rect id="Rectangle_7" data-name="Rectangle 7" width="338" height="344" transform="translate(974 268)" fill="#fff"/>
    </clipPath>
    <linearGradient id="linear-gradient" x1="0.5" x2="0.5" y2="1" gradientUnits="objectBoundingBox">
      <stop offset="0" stop-color="#fff"/>
      <stop offset="1" stop-color="#fff"/>
    </linearGradient>
  </defs>
  <g id="Mask_Group_2" data-name="Mask Group 2" transform="translate(-974 -268)" opacity="0.5" clip-path="url(#clip-path)">
    <path id="Icon_ionic-ios-football" data-name="Icon ionic-ios-football" d="M221.15,3.375C100.85,3.375,3.375,100.85,3.375,221.15c0,120.09,97.685,217.775,217.775,217.775,120.3,0,217.775-97.475,217.775-217.775C438.925,101.06,341.24,3.375,221.15,3.375ZM354.433,87.868a186.99,186.99,0,0,1,23.662,28.792,3.834,3.834,0,0,1,.419,3.664l-15.077,43.241a4.16,4.16,0,0,1-2.2,2.408l-60.2,27.431a4.213,4.213,0,0,1-4.4-.628l-59.26-49.837a4.293,4.293,0,0,1-1.466-3.246V73.628a4.182,4.182,0,0,1,1.885-3.455L278,42.847a4.124,4.124,0,0,1,3.664-.523A190.812,190.812,0,0,1,354.433,87.868ZM277.06,399.453a3.866,3.866,0,0,1-2.722,2.513A188.191,188.191,0,0,1,221.15,409.5a191.468,191.468,0,0,1-53.187-7.538,4.339,4.339,0,0,1-2.722-2.513L148.07,354.433a4.395,4.395,0,0,1,.209-3.455l23.348-44.288a4.231,4.231,0,0,1,3.664-2.2H266.9a4.109,4.109,0,0,1,3.664,2.2l23.348,44.288a4.395,4.395,0,0,1,.209,3.455ZM206.492,73.838V139.9a4.293,4.293,0,0,1-1.466,3.246l-59.365,49.732a4.213,4.213,0,0,1-4.4.628l-60.2-27.431a4.129,4.129,0,0,1-2.2-2.408L63.787,120.534a4.1,4.1,0,0,1,.419-3.664,189.817,189.817,0,0,1,96.533-74.127,4.124,4.124,0,0,1,3.664.523l40.2,27.327A3.466,3.466,0,0,1,206.492,73.838ZM34.471,229.631l37.8-32.666a4.18,4.18,0,0,1,4.5-.628l54.863,24.918a4.193,4.193,0,0,1,2.3,2.827l15.286,59.993a5.005,5.005,0,0,1-.314,3.036l-24.29,45.963a4.076,4.076,0,0,1-3.769,2.2l-48.162-.628a4.371,4.371,0,0,1-3.35-1.675A187.116,187.116,0,0,1,33,233.086,4.579,4.579,0,0,1,34.471,229.631ZM317.578,332.969l-24.186-45.858a3.839,3.839,0,0,1-.314-3.036l15.286-59.993a4.193,4.193,0,0,1,2.3-2.827l54.863-24.918a4.4,4.4,0,0,1,4.5.628l37.8,32.666a4.237,4.237,0,0,1,1.466,3.455,186.572,186.572,0,0,1-36.331,99.883,4.069,4.069,0,0,1-3.35,1.675l-48.266.628A4.593,4.593,0,0,1,317.578,332.969Z" transform="translate(716.475 173.075)" fill="url(#linear-gradient)"/>
  </g>
</svg>
